<mxfile host="app.diagrams.net" modified="2024-06-11T06:14:00.953Z" agent="Mozilla/5.0 (Windows NT 10.0; Win64; x64) AppleWebKit/537.36 (KHTML, like Gecko) Chrome/122.0.0.0 Safari/537.36" etag="AuGoU_jRDW0NZj1KFoYt" version="24.3.0" type="github">
  <diagram name="第 1 页" id="MFttMMgRLVRwfTBMgtG5">
    <mxGraphModel dx="1687" dy="878" grid="1" gridSize="10" guides="1" tooltips="1" connect="1" arrows="1" fold="1" page="1" pageScale="1" pageWidth="827" pageHeight="1169" math="0" shadow="0">
      <root>
        <mxCell id="0" />
        <mxCell id="1" parent="0" />
        <mxCell id="z23qMP3mle5DpsTSC0NI-1" value="微前端架构" style="swimlane;whiteSpace=wrap;html=1;" vertex="1" parent="1">
          <mxGeometry x="520" y="490" width="520" height="870" as="geometry" />
        </mxCell>
        <mxCell id="z23qMP3mle5DpsTSC0NI-5" value="子应用(react16)" style="swimlane;whiteSpace=wrap;html=1;" vertex="1" parent="z23qMP3mle5DpsTSC0NI-1">
          <mxGeometry x="40" y="260" width="200" height="310" as="geometry" />
        </mxCell>
        <mxCell id="z23qMP3mle5DpsTSC0NI-6" value="路由管理层&lt;div&gt;react-router&lt;/div&gt;" style="whiteSpace=wrap;html=1;" vertex="1" parent="z23qMP3mle5DpsTSC0NI-5">
          <mxGeometry x="40" y="50" width="120" height="60" as="geometry" />
        </mxCell>
        <mxCell id="z23qMP3mle5DpsTSC0NI-7" value="状态管理层&lt;div&gt;redux&lt;/div&gt;" style="whiteSpace=wrap;html=1;" vertex="1" parent="z23qMP3mle5DpsTSC0NI-5">
          <mxGeometry x="40" y="140" width="120" height="60" as="geometry" />
        </mxCell>
        <mxCell id="z23qMP3mle5DpsTSC0NI-8" value="构建工具&lt;div&gt;webpack&lt;/div&gt;" style="whiteSpace=wrap;html=1;" vertex="1" parent="z23qMP3mle5DpsTSC0NI-5">
          <mxGeometry x="40" y="224.5" width="120" height="60" as="geometry" />
        </mxCell>
        <mxCell id="z23qMP3mle5DpsTSC0NI-9" value="子应用(vue3)" style="swimlane;whiteSpace=wrap;html=1;" vertex="1" parent="z23qMP3mle5DpsTSC0NI-1">
          <mxGeometry x="280" y="260" width="200" height="310" as="geometry" />
        </mxCell>
        <mxCell id="z23qMP3mle5DpsTSC0NI-10" value="路由管理层&lt;div&gt;vue-router&lt;/div&gt;" style="whiteSpace=wrap;html=1;" vertex="1" parent="z23qMP3mle5DpsTSC0NI-9">
          <mxGeometry x="40" y="50" width="120" height="60" as="geometry" />
        </mxCell>
        <mxCell id="z23qMP3mle5DpsTSC0NI-11" value="状态管理层&lt;div&gt;pinia&lt;/div&gt;" style="whiteSpace=wrap;html=1;" vertex="1" parent="z23qMP3mle5DpsTSC0NI-9">
          <mxGeometry x="40" y="140" width="120" height="60" as="geometry" />
        </mxCell>
        <mxCell id="z23qMP3mle5DpsTSC0NI-12" value="构建工具&lt;div&gt;webpack&lt;/div&gt;" style="whiteSpace=wrap;html=1;" vertex="1" parent="z23qMP3mle5DpsTSC0NI-9">
          <mxGeometry x="40" y="224.5" width="120" height="60" as="geometry" />
        </mxCell>
        <mxCell id="z23qMP3mle5DpsTSC0NI-13" value="构建工具&lt;div&gt;webpack&lt;/div&gt;" style="whiteSpace=wrap;html=1;" vertex="1" parent="z23qMP3mle5DpsTSC0NI-9">
          <mxGeometry x="40" y="224.5" width="120" height="60" as="geometry" />
        </mxCell>
        <mxCell id="z23qMP3mle5DpsTSC0NI-14" value="通用能力" style="swimlane;whiteSpace=wrap;html=1;" vertex="1" parent="z23qMP3mle5DpsTSC0NI-1">
          <mxGeometry x="40" y="610" width="440" height="230" as="geometry" />
        </mxCell>
        <mxCell id="z23qMP3mle5DpsTSC0NI-27" value="request/api" style="whiteSpace=wrap;html=1;" vertex="1" parent="z23qMP3mle5DpsTSC0NI-14">
          <mxGeometry x="20" y="50" width="120" height="60" as="geometry" />
        </mxCell>
        <mxCell id="z23qMP3mle5DpsTSC0NI-29" value="enums" style="whiteSpace=wrap;html=1;" vertex="1" parent="z23qMP3mle5DpsTSC0NI-14">
          <mxGeometry x="20" y="140" width="120" height="60" as="geometry" />
        </mxCell>
        <mxCell id="z23qMP3mle5DpsTSC0NI-30" value="环境变量" style="whiteSpace=wrap;html=1;" vertex="1" parent="z23qMP3mle5DpsTSC0NI-14">
          <mxGeometry x="160" y="140" width="120" height="60" as="geometry" />
        </mxCell>
        <mxCell id="z23qMP3mle5DpsTSC0NI-32" value="utils" style="whiteSpace=wrap;html=1;" vertex="1" parent="z23qMP3mle5DpsTSC0NI-14">
          <mxGeometry x="160" y="50" width="120" height="60" as="geometry" />
        </mxCell>
        <mxCell id="z23qMP3mle5DpsTSC0NI-28" value="i18n" style="whiteSpace=wrap;html=1;" vertex="1" parent="z23qMP3mle5DpsTSC0NI-14">
          <mxGeometry x="300" y="140" width="120" height="60" as="geometry" />
        </mxCell>
        <mxCell id="z23qMP3mle5DpsTSC0NI-31" value="report" style="whiteSpace=wrap;html=1;" vertex="1" parent="z23qMP3mle5DpsTSC0NI-14">
          <mxGeometry x="300" y="50" width="120" height="60" as="geometry" />
        </mxCell>
        <mxCell id="z23qMP3mle5DpsTSC0NI-49" value="基座应用(react)" style="swimlane;whiteSpace=wrap;html=1;" vertex="1" parent="z23qMP3mle5DpsTSC0NI-1">
          <mxGeometry x="40" y="60" width="440" height="150" as="geometry" />
        </mxCell>
        <mxCell id="z23qMP3mle5DpsTSC0NI-2" value="子项目注册层" style="whiteSpace=wrap;html=1;" vertex="1" parent="z23qMP3mle5DpsTSC0NI-49">
          <mxGeometry x="20" y="60" width="120" height="60" as="geometry" />
        </mxCell>
        <mxCell id="z23qMP3mle5DpsTSC0NI-3" value="路由控制层" style="whiteSpace=wrap;html=1;" vertex="1" parent="z23qMP3mle5DpsTSC0NI-49">
          <mxGeometry x="160" y="60" width="120" height="60" as="geometry" />
        </mxCell>
        <mxCell id="z23qMP3mle5DpsTSC0NI-4" value="全局状态管理层" style="whiteSpace=wrap;html=1;" vertex="1" parent="z23qMP3mle5DpsTSC0NI-49">
          <mxGeometry x="300" y="60" width="120" height="60" as="geometry" />
        </mxCell>
        <mxCell id="z23qMP3mle5DpsTSC0NI-56" value="" style="shape=flexArrow;endArrow=classic;html=1;rounded=0;entryX=0.5;entryY=0;entryDx=0;entryDy=0;" edge="1" parent="z23qMP3mle5DpsTSC0NI-1" target="z23qMP3mle5DpsTSC0NI-5">
          <mxGeometry width="50" height="50" relative="1" as="geometry">
            <mxPoint x="140" y="210" as="sourcePoint" />
            <mxPoint x="290" y="230" as="targetPoint" />
          </mxGeometry>
        </mxCell>
        <mxCell id="z23qMP3mle5DpsTSC0NI-57" value="" style="shape=flexArrow;endArrow=classic;html=1;rounded=0;entryX=0.5;entryY=0;entryDx=0;entryDy=0;" edge="1" parent="z23qMP3mle5DpsTSC0NI-1">
          <mxGeometry width="50" height="50" relative="1" as="geometry">
            <mxPoint x="379.40999999999997" y="210" as="sourcePoint" />
            <mxPoint x="379.40999999999997" y="260" as="targetPoint" />
          </mxGeometry>
        </mxCell>
        <mxCell id="z23qMP3mle5DpsTSC0NI-40" value="" style="endArrow=none;dashed=1;html=1;rounded=0;" edge="1" parent="1">
          <mxGeometry width="50" height="50" relative="1" as="geometry">
            <mxPoint x="320" y="370" as="sourcePoint" />
            <mxPoint x="1250" y="370" as="targetPoint" />
          </mxGeometry>
        </mxCell>
        <mxCell id="z23qMP3mle5DpsTSC0NI-41" value="用户访问" style="text;html=1;align=center;verticalAlign=middle;resizable=0;points=[];autosize=1;strokeColor=none;fillColor=none;" vertex="1" parent="1">
          <mxGeometry x="340" y="310" width="70" height="30" as="geometry" />
        </mxCell>
        <mxCell id="z23qMP3mle5DpsTSC0NI-42" value="商家B端APP" style="whiteSpace=wrap;html=1;" vertex="1" parent="1">
          <mxGeometry x="520" y="295" width="520" height="60" as="geometry" />
        </mxCell>
        <mxCell id="z23qMP3mle5DpsTSC0NI-43" value="" style="endArrow=none;dashed=1;html=1;rounded=0;" edge="1" parent="1">
          <mxGeometry width="50" height="50" relative="1" as="geometry">
            <mxPoint x="320" y="465" as="sourcePoint" />
            <mxPoint x="1250" y="465" as="targetPoint" />
          </mxGeometry>
        </mxCell>
        <mxCell id="z23qMP3mle5DpsTSC0NI-44" value="请求转发" style="text;html=1;align=center;verticalAlign=middle;resizable=0;points=[];autosize=1;strokeColor=none;fillColor=none;" vertex="1" parent="1">
          <mxGeometry x="340" y="405" width="70" height="30" as="geometry" />
        </mxCell>
        <mxCell id="z23qMP3mle5DpsTSC0NI-45" value="网关（接入服务）" style="whiteSpace=wrap;html=1;" vertex="1" parent="1">
          <mxGeometry x="520" y="390" width="520" height="60" as="geometry" />
        </mxCell>
        <mxCell id="z23qMP3mle5DpsTSC0NI-48" value="前端应用" style="text;html=1;align=center;verticalAlign=middle;resizable=0;points=[];autosize=1;strokeColor=none;fillColor=none;" vertex="1" parent="1">
          <mxGeometry x="340" y="900" width="70" height="30" as="geometry" />
        </mxCell>
      </root>
    </mxGraphModel>
  </diagram>
</mxfile>
